<svg xmlns="http://www.w3.org/2000/svg" xml:space="preserve" style="fill-rule:evenodd;clip-rule:evenodd;stroke-linejoin:round;stroke-miterlimit:2" viewBox="0 0 128 128">
  <path d="M0 0h100v100H0z" style="fill:none" transform="matrix(1.04501 0 0 1.10781 11.75 8.47)"/>
  <path d="M91 17H47.728l-8.121-8.462A4.999 4.999 0 0 0 36 7H9a5 5 0 0 0-5 5v76a5 5 0 0 0 5 5h82a5 5 0 0 0 5-5V22a5 5 0 0 0-5-5Zm-57.132 0 8.121 8.462A5 5 0 0 0 45.596 27H86v4H14V17h19.868ZM14 83V41h72v42H14Z" style="fill:#2f3237;fill-rule:nonzero" transform="matrix(1.04501 0 0 1.10781 11.75 8.47)"/>
  <path d="M20 29h12a5 5 0 1 0 0-10H20a5 5 0 1 0 0 10Z" style="fill:#5e646e;fill-rule:nonzero" transform="matrix(1.04501 0 0 1.10781 11.75 8.47)"/>
  <path d="m417.6 535.2 69.598 213.6h225.6l69.598-213.6-182.4-132-182.396 132Z" style="fill:#002156;fill-rule:nonzero" transform="matrix(.04529 0 0 .04529 36.827 49.442)"/>
  <path d="M631.2 135.6h-1.199c-9.602-1.199-19.199-1.199-28.801-1.199-9.602 0-20.398 0-30 1.199h-2.399c-242.4 15.598-434.4 218.4-434.4 464.4 0 122.4 48 234 124.8 316.8l2.399 2.398c6 6 12 13.199 19.199 19.199 0 0 1.199 0 1.199 1.2 84 79.203 195.6 127.203 319.2 127.203 256.8 0 465.602-208.803 465.602-465.603-1.2-247.2-193.202-450-435.602-465.59l.002-.007Zm128.4 679.2-55.199 168h1.199c-33.602 10.801-69.602 15.598-105.6 15.598-35.998 0-70.801-4.801-103.2-13.199l-54-168H266.4c-34.801-54-57.602-116.4-63.602-183.6l139.2-108-60-165.6c44.398-58.801 104.4-104.4 174-130.8l142.8 103.2 144-104.39c69.602 26.398 129.6 72 174 130.8l-61.199 166.8 139.2 109.2 2.399-2.398c-4.801 67.199-27.602 129.6-62.398 183.6l-175.2-.004V814.8Z" style="fill:#002156;fill-rule:nonzero" transform="matrix(.04529 0 0 .04529 36.827 49.442)"/>
  <path d="M565.2 267.6h67.199v198H565.2zM710.58 517.31l208.17-42.184 13.348 65.863-208.17 42.184-13.348-65.863ZM648.29 705.3l58.176-33.633 103.9 179.72-58.176 33.633-103.9-179.72ZM388.98 852.28l104.94-180.51 58.094 33.773-104.94 180.51-58.094-33.773ZM208.32 528.55l12.836-65.965 281.52 54.777-12.836 65.965-281.52-54.777Z" style="fill:#002156;fill-rule:nonzero" transform="matrix(.04529 0 0 .04529 36.827 49.442)"/>
</svg>
